# xmcd
#
# Track frame offsets: 
#        150
#        17419
#        30038
#        42811
#        53888
#        71730
#        90508
#        106262
#        118798
#        129627
#        147020
#        168591
#        181046
#        197382
#        210730
#
# Disc length: 3025 seconds
#
# Revision: 0
# Processed by: cddbd v1.5.2PL0 Copyright (c) Steve Scherf et al.
# Submitted via: ExactAudioCopy v0.99pb5
#
DISCID=bd0bcf0f
DTITLE=Nina Van Horn  - Hell of a woman! Hommage aux femmes du blues 
DYEAR=2009
DGENRE=Blues
TTITLE0=Sisters, Sisters
TTITLE1=Down In The Alley
TTITLE2=Dirty Tb Blues
TTITLE3=I"Ll Keep Sitting On It
TTITLE4=Scrap Your Fat
TTITLE5=Knockin" Myself Out
TTITLE6=God Don"T Like It
TTITLE7=Strange Fruits
TTITLE8=Prove It On Me
TTITLE9=Me And My Gin
TTITLE10=See See Rider
TTITLE11=You Can"T Tell The Difference After Dark
TTITLE12=Dope Head Blues
TTITLE13=This Train
TTITLE14=Sometimes I Feel Like A Motherless Child
EXTD=
EXTT0=
EXTT1=
EXTT2=
EXTT3=
EXTT4=
EXTT5=
EXTT6=
EXTT7=
EXTT8=
EXTT9=
EXTT10=
EXTT11=
EXTT12=
EXTT13=
EXTT14=
PLAYORDER=
